<svg width="36" height="36" viewBox="0 0 36 36" fill="none" xmlns="http://www.w3.org/2000/svg">
<path d="M23.2731 14.7276C22.1685 14.7276 21.2731 13.8322 21.2731 12.7276V3.63672C21.2731 2.53215 20.3777 1.63672 19.2731 1.63672H16.7276C15.6231 1.63672 14.7276 2.53215 14.7276 3.63672V12.7276C14.7276 13.8322 13.8322 14.7276 12.7276 14.7276H3.63672C2.53215 14.7276 1.63672 15.6231 1.63672 16.7276V19.2731C1.63672 20.3777 2.53215 21.2731 3.63672 21.2731H12.7276C13.8322 21.2731 14.7276 22.1685 14.7276 23.2731V32.364C14.7276 33.4686 15.6231 34.364 16.7276 34.364H19.2731C20.3777 34.364 21.2731 33.4686 21.2731 32.364V23.2731C21.2731 22.1685 22.1685 21.2731 23.2731 21.2731H32.364C33.4686 21.2731 34.364 20.3777 34.364 19.2731V16.7276C34.364 15.6231 33.4686 14.7276 32.364 14.7276H23.2731Z" fill="url(#paint0_linear_346_2696)"/>
<defs>
<linearGradient id="paint0_linear_346_2696" x1="18.0004" y1="1.63672" x2="18.0004" y2="34.364" gradientUnits="userSpaceOnUse">
<stop stop-color="#FF71A4"/>
<stop offset="1" stop-color="#EE3175"/>
</linearGradient>
</defs>
</svg>
