<svg width="36" height="36" viewBox="0 0 36 36" fill="none" xmlns="http://www.w3.org/2000/svg">
<path d="M32.4282 6.94725C32.0114 6.52886 31.5161 6.19689 30.9707 5.97037C30.4254 5.74385 29.8406 5.62725 29.2501 5.62725C28.6595 5.62725 28.0748 5.74385 27.5294 5.97037C26.984 6.19689 26.4887 6.52886 26.0719 6.94725C25.7851 7.22535 25.5389 7.54254 25.3407 7.88943L21.3751 6.80662C21.3848 5.91293 21.1281 5.0366 20.6379 4.28933C20.1476 3.54206 19.4459 2.9577 18.6223 2.61074C17.7986 2.26378 16.8903 2.16995 16.0131 2.34119C15.136 2.51243 14.3296 2.94099 13.697 3.57225C13.0194 4.24822 12.5749 5.12262 12.4283 6.06843C12.2816 7.01424 12.4403 7.98218 12.8813 8.83162L8.11414 13.1207C7.24799 12.5483 6.21056 12.293 5.1777 12.3981C4.14484 12.5032 3.18009 12.9622 2.44695 13.6972C2.02857 14.114 1.69659 14.6093 1.47008 15.1547C1.24356 15.7001 1.12695 16.2848 1.12695 16.8754C1.12695 17.4659 1.24356 18.0507 1.47008 18.596C1.69659 19.1414 2.02857 19.6367 2.44695 20.0535C2.86217 20.4741 3.35712 20.8077 3.90283 21.0346C4.44854 21.2616 5.03405 21.3775 5.62508 21.3754C6.66485 21.3767 7.67321 21.0191 8.47977 20.3629L18.3235 27.5769C17.9971 28.3946 17.9177 29.2901 18.0952 30.1524C18.2726 31.0148 18.6992 31.8062 19.3219 32.4285C19.7387 32.8469 20.234 33.1789 20.7794 33.4054C21.3248 33.6319 21.9095 33.7485 22.5001 33.7485C23.0906 33.7485 23.6754 33.6319 24.2207 33.4054C24.7661 33.1789 25.2614 32.8469 25.6782 32.4285C26.0966 32.0117 26.4286 31.5164 26.6551 30.971C26.8816 30.4257 26.9982 29.8409 26.9982 29.2504C26.9982 28.6598 26.8816 28.0751 26.6551 27.5297C26.4286 26.9843 26.0966 26.489 25.6782 26.0722C25.4715 25.8693 25.2507 25.6813 25.0173 25.5097L28.8563 14.6113H29.2501C29.8411 14.6134 30.4266 14.4976 30.9723 14.2706C31.518 14.0436 32.013 13.71 32.4282 13.2894C33.2689 12.4482 33.7412 11.3076 33.7412 10.1183C33.7412 8.92906 33.2689 7.78845 32.4282 6.94725ZM15.286 5.16131C15.6005 4.8461 16.0014 4.63126 16.438 4.544C16.8746 4.45675 17.3273 4.50099 17.7387 4.67112C18.1502 4.84126 18.5019 5.12964 18.7494 5.49977C18.9968 5.8699 19.1289 6.30513 19.1289 6.75037C19.1289 7.19561 18.9968 7.63084 18.7494 8.00097C18.5019 8.3711 18.1502 8.65948 17.7387 8.82962C17.3273 8.99976 16.8746 9.044 16.438 8.95674C16.0014 8.86948 15.6005 8.65465 15.286 8.33943C15.076 8.13152 14.9092 7.88403 14.7954 7.61128C14.6817 7.33852 14.6231 7.04591 14.6231 6.75037C14.6231 6.45483 14.6817 6.16222 14.7954 5.88947C14.9092 5.61671 15.076 5.36922 15.286 5.16131ZM4.03602 18.4644C3.82598 18.2565 3.65924 18.009 3.54545 17.7363C3.43166 17.4635 3.37307 17.1709 3.37307 16.8754C3.37307 16.5798 3.43166 16.2872 3.54545 16.0145C3.65924 15.7417 3.82598 15.4942 4.03602 15.2863C4.35047 14.9711 4.75137 14.7563 5.18797 14.669C5.62458 14.5817 6.07726 14.626 6.48871 14.7961C6.90016 14.9663 7.25189 15.2546 7.49936 15.6248C7.74683 15.9949 7.87893 16.4301 7.87893 16.8754C7.87893 17.3206 7.74683 17.7558 7.49936 18.126C7.25189 18.4961 6.90016 18.7845 6.48871 18.9546C6.07726 19.1248 5.62458 19.169 5.18797 19.0817C4.75137 18.9945 4.35047 18.7796 4.03602 18.4644ZM24.0891 30.8394C23.6611 31.2272 23.1004 31.4356 22.523 31.4214C21.9456 31.4072 21.3958 31.1715 20.9874 30.7631C20.579 30.3547 20.3433 29.8048 20.3291 29.2275C20.3148 28.6501 20.5232 28.0893 20.911 27.6613C21.339 27.2735 21.8998 27.0651 22.4772 27.0793C23.0546 27.0936 23.6044 27.3293 24.0128 27.7377C24.4212 28.1461 24.6569 28.6959 24.6711 29.2733C24.6853 29.8507 24.4769 30.4114 24.0891 30.8394ZM22.8938 24.7644C21.7228 24.6659 20.5589 25.0236 19.6454 25.7629L9.80164 18.5488C10.04 17.946 10.147 17.2992 10.1155 16.6517C10.084 16.0042 9.91465 15.3709 9.61883 14.7941L14.386 10.5051C15.1258 10.9898 15.9906 11.2488 16.8751 11.2504C17.4661 11.2525 18.0516 11.1366 18.5973 10.9096C19.143 10.6827 19.638 10.3491 20.0532 9.9285C20.3401 9.65039 20.5862 9.33321 20.7845 8.98631L24.7501 10.0691C24.7404 10.6696 24.8526 11.2658 25.0798 11.8217C25.307 12.3776 25.6445 12.8817 26.0719 13.3035C26.2786 13.5065 26.4995 13.6945 26.7329 13.866L22.8938 24.7644ZM30.8391 11.7144C30.4111 12.1022 29.8504 12.3106 29.273 12.2964C28.6956 12.2822 28.1458 12.0465 27.7374 11.6381C27.329 11.2297 27.0933 10.6798 27.0791 10.1025C27.0648 9.52506 27.2732 8.96432 27.661 8.53631C27.8657 8.31044 28.1141 8.12851 28.3912 8.00155C28.6683 7.87459 28.9683 7.80526 29.273 7.79776C29.5777 7.79025 29.8807 7.84474 30.1638 7.95791C30.4468 8.07107 30.7038 8.24056 30.9194 8.45609C31.1349 8.67161 31.3044 8.92868 31.4175 9.21169C31.5307 9.4947 31.5852 9.79775 31.5777 10.1025C31.5702 10.4072 31.5009 10.7072 31.3739 10.9843C31.2469 11.2614 31.065 11.5098 30.8391 11.7144Z" fill="url(#paint0_linear_346_2712)"/>
<circle cx="5.625" cy="16.875" r="3.375" fill="url(#paint1_linear_346_2712)"/>
<circle cx="16.875" cy="6.75" r="3.375" fill="url(#paint2_linear_346_2712)"/>
<circle cx="29.25" cy="9" r="3.375" fill="url(#paint3_linear_346_2712)"/>
<circle cx="22.5" cy="29.25" r="3.375" fill="url(#paint4_linear_346_2712)"/>
<defs>
<linearGradient id="paint0_linear_346_2712" x1="17.4341" y1="2.25781" x2="17.4341" y2="33.7485" gradientUnits="userSpaceOnUse">
<stop stop-color="#FF824D"/>
<stop offset="0.541667" stop-color="#FF6D4D"/>
<stop offset="1" stop-color="#FF784D"/>
</linearGradient>
<linearGradient id="paint1_linear_346_2712" x1="5.625" y1="13.5" x2="5.625" y2="20.25" gradientUnits="userSpaceOnUse">
<stop stop-color="#FF824D"/>
<stop offset="0.541667" stop-color="#FF6D4D"/>
<stop offset="1" stop-color="#FF784D"/>
</linearGradient>
<linearGradient id="paint2_linear_346_2712" x1="16.875" y1="3.375" x2="16.875" y2="10.125" gradientUnits="userSpaceOnUse">
<stop stop-color="#FF824D"/>
<stop offset="0.541667" stop-color="#FF6D4D"/>
<stop offset="1" stop-color="#FF784D"/>
</linearGradient>
<linearGradient id="paint3_linear_346_2712" x1="29.25" y1="5.625" x2="29.25" y2="12.375" gradientUnits="userSpaceOnUse">
<stop stop-color="#FF824D"/>
<stop offset="0.541667" stop-color="#FF6D4D"/>
<stop offset="1" stop-color="#FF784D"/>
</linearGradient>
<linearGradient id="paint4_linear_346_2712" x1="22.5" y1="25.875" x2="22.5" y2="32.625" gradientUnits="userSpaceOnUse">
<stop stop-color="#FF824D"/>
<stop offset="0.541667" stop-color="#FF6D4D"/>
<stop offset="1" stop-color="#FF784D"/>
</linearGradient>
</defs>
</svg>
